HIERARCHY
ROOT Hips
{
	OFFSET 0.00000 0.00000 0.00000
	CHANNELS 6 Xposition Yposition Zposition Zrotation Yrotation Xrotation 
	JOINT LHipJoint
	{
		OFFSET 0 0 0
		CHANNELS 3 Zrotation Yrotation Xrotation
		JOINT LeftHip
		{
			OFFSET 1.65412 -1.54119 0.76744
			CHANNELS 3 Zrotation Yrotation Xrotation
			JOINT LeftKnee
			{
				OFFSET 2.19550 -6.03209 0.00000
				CHANNELS 3 Zrotation Yrotation Xrotation
				JOINT LeftAnkle
				{
					OFFSET 2.38814 -6.56138 0.00000
					CHANNELS 3 Zrotation Yrotation Xrotation
					JOINT LeftToe
					{
						OFFSET 0.17337 -0.47632 1.75875
						CHANNELS 3 Zrotation Yrotation Xrotation
						End Site
						{
							OFFSET 0.00000 -0.00000 0.92050
						}
					}
				}
			}
		}
	}
	JOINT RHipJoint
	{
		OFFSET 0 0 0
		CHANNELS 3 Zrotation Yrotation Xrotation
		JOINT RightHip
		{
			OFFSET -1.40291 -1.54119 0.76744
			CHANNELS 3 Zrotation Yrotation Xrotation
			JOINT RightKnee
			{
				OFFSET -2.22156 -6.10370 0.00000
				CHANNELS 3 Zrotation Yrotation Xrotation
				JOINT RightAnkle
				{
					OFFSET -2.46840 -6.78188 0.00000
					CHANNELS 3 Zrotation Yrotation Xrotation
					JOINT RightToe
					{
						OFFSET -0.15659 -0.43024 1.84117
						CHANNELS 3 Zrotation Yrotation Xrotation
						End Site
						{
							OFFSET -0.00000 -0.00000 0.95587
						}
					}
				}
			}
		}
	}
	JOINT lowerback
	{
		OFFSET 0 0 0
		CHANNELS 3 Zrotation Yrotation Xrotation
		JOINT Chest
		{
			OFFSET -0.01936 1.82120 -0.32061
			CHANNELS 3 Zrotation Yrotation Xrotation
			JOINT Chest2
			{
				OFFSET -0.00532 1.85767 -0.00071
				CHANNELS 3 Zrotation Yrotation Xrotation
				JOINT lowerneck
				{
					OFFSET 0 0 0
					CHANNELS 3 Zrotation Yrotation Xrotation
					JOINT Neck
					{
						OFFSET -0.10687 1.58194 0.10810
						CHANNELS 3 Zrotation Yrotation Xrotation
						JOINT Head
						{
							OFFSET 0.15346 1.57382 -0.25612
							CHANNELS 3 Zrotation Yrotation Xrotation
							End Site
							{
								OFFSET 0.05334 1.61251 -0.10513
							}
						}
					}
				}
				JOINT LeftCollar
				{
					OFFSET 0 0 0
					CHANNELS 3 Zrotation Yrotation Xrotation
					JOINT LeftShoulder
					{
						OFFSET 2.85758 0.89498 -0.01485
CHANNELS 3 Zrotation Xrotation Yrotation
						JOINT LeftElbow
						{
OFFSET 0 -4.791850 -0.000000
CHANNELS 3 Zrotation Xrotation Yrotation
							JOINT LeftWrist
							{
OFFSET 0 -2.655530 0.000000
CHANNELS 3 Zrotation Xrotation Yrotation
								JOINT lhand
								{
									OFFSET 0 0 0
CHANNELS 3 Zrotation Xrotation Yrotation
									JOINT LFingers
									{
OFFSET 0 -0.743900 0.000000
CHANNELS 3 Zrotation Xrotation Yrotation
										End Site
										{
OFFSET 0 -0.599750 0.000000
										}
									}
								}
								JOINT LThumb
								{
OFFSET 0 0.000000 0.000000
CHANNELS 3 Zrotation Xrotation Yrotation
									End Site
									{
OFFSET 0 -0.608910 0.608910
									}
								}
							}
						}
					}
				}
				JOINT RightCollar
				{
					OFFSET 0 0 0
					CHANNELS 3 Zrotation Yrotation Xrotation
					JOINT RightShoulder
					{
						OFFSET -2.93906 0.88031 0.02490
CHANNELS 3 Zrotation Xrotation Yrotation
						JOINT RightElbow
						{
OFFSET 0 -4.772540 -0.000000
CHANNELS 3 Zrotation Xrotation Yrotation
							JOINT RightWrist
							{
OFFSET 0 -2.759950 -0.000000
CHANNELS 3 Zrotation Xrotation Yrotation
								JOINT rhand
								{
									OFFSET 0 0 0
CHANNELS 3 Zrotation Xrotation Yrotation
									JOINT RFingers
									{
OFFSET 0 -0.701620 0.000000
CHANNELS 3 Zrotation Xrotation Yrotation
										End Site
										{
OFFSET 0 -0.565660 0.000000
										}
									}
								}
								JOINT RThumb
								{
OFFSET 0 0.000000 0.000000
CHANNELS 3 Zrotation Xrotation Yrotation
									End Site
									{
OFFSET 0 -0.574300 0.574300
									}
								}
							}
						}
					}
				}
			}
		}
	}
}
MOTION
Frames: 11
Frame Time: 0.008333333333333333
0.361050 15.009562 -1.069625 -0.170390 3.078375 -4.653212 0.000000 0.000000 0.000000 -15.029432 -5.750680 -17.094085 6.233625 14.650988 45.912226 0.287019 -14.792684 -13.357151 0.071036 -1.719326 -4.730634 0.000000 0.000000 0.000000 14.482615 6.948567 -16.000741 -6.810194 -15.169982 48.152852 -1.560136 1.565895 -23.171625 -0.990672 6.334681 -17.758777 -2.845391 0.735848 16.382345 -1.901538 0.580904 9.431744 -0.478996 0.238912 0.850383 -16.955592 -10.282580 3.963947 21.162528 -14.678463 -0.757264 8.885921 -7.547870 2.041567 0.000000 0.000000 0.000000 7.186515 -1.894533 -26.492307 11.209235 -18.608283 1.842141 9.652303 -24.566233 -10.392563 0.000000 0.000000 0.000000 -7.125000 0.000000 0.000000 -15.185395 40.053605 -1.902084 0.000000 0.000000 0.000000 -24.876154 -40.568375 19.047052 -144.991525 -44.817836 -105.180550 -1.711626 -47.491349 -6.177331 0.000000 0.000000 0.000000 7.125000 0.000000 0.000000 18.291430 23.806536 9.844332
0.355638 15.015393 -1.062948 -0.156785 3.321309 -4.773309 0.000000 0.000000 0.000000 -15.063617 -5.753076 -16.876267 6.186321 14.606448 45.724884 0.254645 -14.918845 -13.114584 0.057546 -1.548173 -4.258407 0.000000 0.000000 0.000000 14.493417 6.694628 -15.769573 -6.770453 -15.135529 48.000701 -1.562957 1.488862 -23.213646 -0.997616 6.356204 -17.821589 -2.846682 0.764652 16.350463 -1.845926 0.622884 9.456528 -0.425813 0.258584 0.892359 -16.894051 -10.235404 4.140326 21.298668 -14.549310 -1.443583 8.959044 -7.506842 1.798973 0.000000 0.000000 0.000000 7.144857 -1.860725 -26.502801 11.197201 -18.589879 1.838270 9.629281 -24.476995 -10.246480 0.000000 0.000000 0.000000 -7.125000 0.000000 0.000000 -15.168498 39.909081 -1.955476 0.000000 0.000000 0.000000 -25.561599 -42.212286 19.212423 -146.668634 -43.583124 -106.349972 -1.611339 -47.821679 -6.580631 0.000000 0.000000 0.000000 7.125000 0.000000 0.000000 18.308137 23.423567 10.025515
0.353537 15.020376 -1.061749 -0.077829 3.474667 -4.762406 0.000000 0.000000 0.000000 -15.166795 -5.749851 -16.828238 6.144019 14.566395 45.556876 0.240741 -14.919804 -12.979926 0.056151 -1.529505 -4.207087 0.000000 0.000000 0.000000 14.379457 6.506677 -15.742792 -6.751841 -15.119392 47.929604 -1.564792 1.647236 -23.185420 -0.896396 6.034117 -16.883582 -2.906767 0.795276 16.318121 -1.820233 0.657591 9.452432 -0.370053 0.273252 0.903836 -16.859617 -10.038737 4.478889 21.420255 -14.196344 -2.428336 9.071281 -7.368226 1.401905 0.000000 0.000000 0.000000 7.172056 -1.806468 -26.683606 11.217505 -18.620860 1.844796 9.447213 -24.449485 -10.140575 0.000000 0.000000 0.000000 -7.125000 0.000000 0.000000 -15.296678 39.790744 -2.018759 0.000000 0.000000 0.000000 -25.844286 -43.425459 20.102378 -147.941134 -42.593939 -107.219303 -1.446403 -46.966443 -7.485960 0.000000 0.000000 0.000000 7.125000 0.000000 0.000000 18.305466 22.564222 10.407481
0.352896 15.024804 -1.061422 -0.135040 3.536936 -4.785814 0.000000 0.000000 0.000000 -15.107943 -5.757298 -16.772707 6.131192 14.554292 45.506032 0.235282 -14.962045 -12.950689 0.052926 -1.481948 -4.076040 0.000000 0.000000 0.000000 14.427637 6.323003 -15.701455 -6.718976 -15.090606 47.803360 -1.561056 1.642915 -23.158428 -0.925489 6.128891 -17.158913 -2.812925 0.784369 16.271913 -1.757352 0.662660 9.562372 -0.356735 0.276279 1.045284 -16.809352 -9.893196 4.319527 21.419801 -13.868451 -3.242491 9.102372 -7.210840 1.131617 0.000000 0.000000 0.000000 7.127116 -1.880227 -26.607758 11.280422 -18.716835 1.864936 9.300578 -24.378841 -10.127333 0.000000 0.000000 0.000000 -7.125000 0.000000 0.000000 -15.417562 39.765929 -2.045334 0.000000 0.000000 0.000000 -26.271119 -44.310798 20.930453 -149.333463 -41.457682 -108.151462 -0.523155 -47.003922 -7.837287 0.000000 0.000000 0.000000 7.125000 0.000000 0.000000 18.903762 22.234283 10.938371
0.352624 15.024010 -1.066105 -0.185532 3.521268 -4.825576 0.000000 0.000000 0.000000 -15.038631 -5.736487 -16.773780 6.137034 14.559834 45.529258 0.224408 -15.007983 -12.870556 0.045251 -1.372950 -3.775754 0.000000 0.000000 0.000000 14.479802 6.230291 -15.723204 -6.714864 -15.086960 47.787377 -1.553144 1.633638 -23.100435 -0.952806 6.215809 -17.411952 -2.741374 0.772757 16.354518 -1.700884 0.657223 9.663282 -0.337575 0.273879 1.110328 -16.649980 -9.683405 4.880761 21.402930 -13.414807 -5.065790 9.198289 -7.044705 0.422262 0.000000 0.000000 0.000000 7.047792 -2.006968 -26.540858 11.293072 -18.736036 1.868959 9.360817 -24.273661 -10.195800 0.000000 0.000000 0.000000 -7.125000 0.000000 0.000000 -15.383631 39.837599 -2.012660 0.000000 0.000000 0.000000 -25.870047 -44.772497 22.981209 -150.598937 -40.374176 -108.980326 -0.905621 -49.933983 -8.074371 0.000000 0.000000 0.000000 7.125000 0.000000 0.000000 18.607140 22.008346 10.849664
0.352066 15.023826 -1.069092 0.007345 3.373563 -4.847558 0.000000 0.000000 0.000000 -15.243671 -5.559930 -16.742360 6.117758 14.541458 45.452459 0.234170 -14.923255 -12.918040 0.053995 -1.498832 -4.122421 0.000000 0.000000 0.000000 14.248300 6.280730 -15.781198 -6.742471 -15.111145 47.893359 -1.556942 1.783310 -23.090604 -0.954602 6.221867 -17.429480 -2.872327 0.825772 16.480704 -1.700395 0.703645 9.682142 -0.271937 0.291829 1.063908 -16.856660 -9.523803 5.251098 21.452574 -13.099240 -6.383171 9.340007 -6.922446 -0.053340 0.000000 0.000000 0.000000 6.996589 -2.082513 -26.723032 11.209414 -18.608480 1.842178 9.379474 -24.481022 -10.113404 0.000000 0.000000 0.000000 -7.125000 0.000000 0.000000 -15.347184 39.758745 -2.038270 0.000000 0.000000 0.000000 -24.820847 -44.538000 26.194369 -151.875676 -39.230337 -109.797737 -2.403874 -53.255131 -7.998746 0.000000 0.000000 0.000000 7.125000 0.000000 0.000000 17.572425 22.069564 10.157638
0.352605 15.018840 -1.075643 0.007650 3.335337 -4.861371 0.000000 0.000000 0.000000 -15.228052 -5.507872 -16.808114 6.140121 14.562744 45.541307 0.242848 -14.941921 -13.013129 0.060775 -1.589917 -4.373778 0.000000 0.000000 0.000000 14.228694 6.259510 -15.856637 -6.763634 -15.129616 47.974729 -1.556587 1.832465 -23.075847 -0.949647 6.206068 -17.383558 -2.789224 0.803227 16.519915 -1.705747 0.686230 9.765792 -0.321817 0.285647 1.134275 -16.919063 -9.585588 5.330709 21.360909 -13.118597 -7.098775 9.349314 -6.940997 -0.267213 0.000000 0.000000 0.000000 7.038317 -2.152313 -26.860504 11.238904 -18.653486 1.851573 9.527809 -24.403969 -10.323625 0.000000 0.000000 0.000000 -7.125000 0.000000 0.000000 -15.273875 39.975931 -1.943918 0.000000 0.000000 0.000000 -23.128839 -44.444368 29.902603 -152.978188 -38.199868 -110.487395 -4.963721 -55.166303 -7.999264 0.000000 0.000000 0.000000 7.125000 0.000000 0.000000 15.772355 22.036105 9.042433
0.357234 15.014661 -1.084425 -0.023720 3.280279 -4.902590 0.000000 0.000000 0.000000 -15.210863 -5.550134 -16.825218 6.168516 14.589689 45.654301 0.246274 -14.939682 -13.044704 0.064893 -1.643271 -4.520743 0.000000 0.000000 0.000000 14.236194 6.256782 -15.907767 -6.789251 -15.151841 48.072629 -1.554510 1.765477 -23.076907 -1.000369 6.364810 -17.846603 -2.711682 0.785830 16.544418 -1.635003 0.674556 9.812638 -0.289513 0.280312 1.171340 -17.091171 -9.611288 5.575337 21.276864 -13.171184 -7.378987 9.372509 -6.975300 -0.372297 0.000000 0.000000 0.000000 6.997358 -2.276144 -26.990184 11.194143 -18.585229 1.837299 9.345657 -24.298690 -10.446565 0.000000 0.000000 0.000000 -7.125000 0.000000 0.000000 -15.459415 40.080693 -1.927799 0.000000 0.000000 0.000000 -21.308224 -44.678949 32.237169 -153.010787 -38.168898 -110.507561 -7.050048 -55.501907 -7.836767 0.000000 0.000000 0.000000 7.125000 0.000000 0.000000 14.307464 22.154434 8.105986
0.358409 15.009144 -1.091933 -0.032920 3.192175 -5.008773 0.000000 0.000000 0.000000 -15.201737 -5.498230 -16.787107 6.188888 14.608973 45.735260 0.252322 -14.930863 -13.099095 0.062057 -1.607101 -4.421046 0.000000 0.000000 0.000000 14.254544 6.312510 -15.845655 -6.798547 -15.159922 48.108408 -1.548505 1.740568 -23.037470 -0.983055 6.311119 -17.689816 -2.758496 0.855568 16.608859 -1.473951 0.758167 9.827504 -0.107468 0.315530 1.150129 -17.719519 -9.654865 6.337159 21.511622 -13.334822 -7.842362 9.607653 -7.092049 -0.534991 0.000000 0.000000 0.000000 6.877323 -2.267577 -27.343268 11.252045 -18.673566 1.855814 9.375340 -24.160366 -10.564548 0.000000 0.000000 0.000000 -7.125000 0.000000 0.000000 -15.464207 40.198158 -1.882397 0.000000 0.000000 0.000000 -19.962817 -44.756150 33.875021 -152.586187 -38.570922 -110.243996 -7.522596 -56.586027 -7.854163 0.000000 0.000000 0.000000 7.125000 0.000000 0.000000 13.969335 22.126975 7.910970
0.364092 15.003855 -1.100497 0.004521 3.168806 -5.021662 0.000000 0.000000 0.000000 -15.269482 -5.519732 -16.835972 6.208795 14.627727 45.814226 0.254154 -14.885737 -13.091081 0.062768 -1.616278 -4.446349 0.000000 0.000000 0.000000 14.166909 6.361275 -15.909946 -6.823187 -15.181160 48.202509 -1.557414 1.821829 -23.084771 -0.990293 6.333499 -17.755332 -2.746447 0.895239 16.575053 -1.401122 0.817713 9.957981 -0.045935 0.341654 1.306043 -17.760448 -9.833446 6.477436 21.323495 -13.589062 -8.038518 9.550912 -7.218830 -0.576462 0.000000 0.000000 0.000000 6.922714 -2.490437 -27.884482 11.325085 -18.784739 1.879226 9.570516 -24.440897 -10.603894 0.000000 0.000000 0.000000 -7.125000 0.000000 0.000000 -15.308040 40.252984 -1.841015 0.000000 0.000000 0.000000 -19.199821 -45.339491 34.219979 -152.345069 -38.796601 -110.093278 -7.079533 -57.320029 -7.829714 0.000000 0.000000 0.000000 7.125000 0.000000 0.000000 14.287267 22.160530 8.091061
0.368344 14.999957 -1.113320 -0.074101 3.149390 -5.037786 0.000000 0.000000 0.000000 -15.171761 -5.487738 -16.977682 6.245431 14.662053 45.959035 0.250037 -14.992563 -13.111281 0.050246 -1.446390 -3.977997 0.000000 0.000000 0.000000 14.234071 6.409646 -16.002112 -6.848460 -15.202983 48.298998 -1.547989 1.689530 -23.046822 -1.009415 6.392587 -17.927922 -2.581522 0.906036 16.655755 -1.356254 0.852919 10.019058 -0.097646 0.364799 1.329797 -17.856620 -9.859001 6.355085 21.356064 -13.662897 -7.597567 9.544824 -7.245299 -0.407107 0.000000 0.000000 0.000000 6.942950 -2.609742 -27.846200 11.254298 -18.677036 1.856547 9.309985 -24.206056 -10.427179 0.000000 0.000000 0.000000 -7.125000 0.000000 0.000000 -15.484781 40.058844 -1.939773 0.000000 0.000000 0.000000 -18.736917 -45.878178 34.114147 -151.940795 -39.170645 -109.838894 -6.436914 -57.306064 -8.360396 0.000000 0.000000 0.000000 7.125000 0.000000 0.000000 14.696285 21.657475 8.512875
